<?xml version="1.0" encoding="UTF-8" standalone="no"?>
<!-- Created with Inkscape (http://www.inkscape.org/) -->

<svg
   xmlns:dc="http://purl.org/dc/elements/1.1/"
   xmlns:cc="http://creativecommons.org/ns#"
   xmlns:rdf="http://www.w3.org/1999/02/22-rdf-syntax-ns#"
   xmlns:svg="http://www.w3.org/2000/svg"
   xmlns="http://www.w3.org/2000/svg"
   xmlns:sodipodi="http://sodipodi.sourceforge.net/DTD/sodipodi-0.dtd"
   xmlns:inkscape="http://www.inkscape.org/namespaces/inkscape"
   width="440.15692"
   height="272.00439"
   id="svg2"
   version="1.1"
   inkscape:version="0.48.3.1 r9886"
   sodipodi:docname="MpaxsLogo.svg"
   inkscape:export-filename="/home/hoffmann/Uni/projects/sf/mpaxs/mpaxs-code/src/site/resources/images/MpaxsLogo.png"
   inkscape:export-xdpi="33.82"
   inkscape:export-ydpi="33.82">
  <defs
     id="defs4" />
  <sodipodi:namedview
     id="base"
     pagecolor="#ffffff"
     bordercolor="#666666"
     borderopacity="1"
     inkscape:pageopacity="0"
     inkscape:pageshadow="2"
     inkscape:zoom="2.5490042"
     inkscape:cx="220.53641"
     inkscape:cy="136.0128"
     inkscape:document-units="px"
     inkscape:current-layer="layer1"
     showgrid="true"
     showguides="false"
     fit-margin-top="20"
     fit-margin-left="20"
     fit-margin-right="20"
     fit-margin-bottom="20"
     inkscape:window-width="1600"
     inkscape:window-height="1171"
     inkscape:window-x="0"
     inkscape:window-y="0"
     inkscape:window-maximized="1"
     borderlayer="false">
    <inkscape:grid
       type="xygrid"
       id="grid2985"
       empspacing="5"
       visible="true"
       enabled="true"
       snapvisiblegridlinesonly="true"
       originx="93.008145px"
       originy="-848.9872px" />
  </sodipodi:namedview>
  <metadata
     id="metadata7">
    <rdf:RDF>
      <cc:Work
         rdf:about="">
        <dc:format>image/svg+xml</dc:format>
        <dc:type
           rdf:resource="http://purl.org/dc/dcmitype/StillImage" />
        <dc:title></dc:title>
      </cc:Work>
    </rdf:RDF>
  </metadata>
  <g
     inkscape:label="Ebene 1"
     inkscape:groupmode="layer"
     id="layer1"
     transform="translate(93.008145,68.629404)">
    <path
       style="fill:#73945b;fill-opacity:1;fill-rule:nonzero;stroke:#2d5016;stroke-width:2;stroke-linecap:round;stroke-linejoin:round;stroke-miterlimit:4;stroke-opacity:1;stroke-dasharray:none"
       d="m 57.99999,-47.637811 -59.9999999,100 -70.0000001,0 14.15625,15 -14.15625,15 70.0000001,0 59.9999999,100.000001 60,0 14.15625,-15 -14.15625,-15 -60,0 -42,-70.000001 102,0 14.15625,-15 -14.15625,-15 -102,0 42,-70 60,0 14.15625,-15 -14.15625,-15 -60,0 z"
       id="rect2989"
       inkscape:connector-curvature="0"
       inkscape:export-filename="/home/hoffmann/Uni/projects/sf/maltcms/maven/cross/trunk/src/site/resources/images/cross-logo.png"
       inkscape:export-xdpi="33.740002"
       inkscape:export-ydpi="33.740002" />
    <path
       style="fill:#aade87;fill-opacity:1;fill-rule:nonzero;stroke:#000000;stroke-width:2;stroke-linecap:round;stroke-linejoin:round;stroke-miterlimit:4;stroke-opacity:1;stroke-dasharray:none"
       d="m -72,2.3621856 14.15625,15.0000004 -14.15625,15 10,0 60,0 60,99.999994 59.99999,0 14.15625,-15 -14.15625,-15 -59.99999,0 -60,-99.9999944 -60,0 -10,0 z"
       id="rect2989-4"
       inkscape:connector-curvature="0"
       inkscape:export-filename="/home/hoffmann/Uni/projects/sf/maltcms/maven/cross/trunk/src/site/resources/images/cross-logo.png"
       inkscape:export-xdpi="33.740002"
       inkscape:export-ydpi="33.740002" />
    <path
       style="fill:#5c7394;fill-opacity:1;fill-rule:nonzero;stroke:#323232;stroke-width:2;stroke-linecap:round;stroke-linejoin:round;stroke-miterlimit:4;stroke-opacity:1;stroke-dasharray:none"
       d="m 122,-47.637811 14.15625,15 -14.15625,15 10,0 60,0 42,70 -112,0 14.15625,15 -14.15625,15 112,0 -42,70.000001 -60,0 -10,0 14.15625,15 -14.15625,15 10,0 60,0 60,-100.000001 60,0 14.15625,-15 -14.15625,-15 -60,0 -60,-100 -60,0 -10,0 z"
       id="path3393"
       inkscape:connector-curvature="0"
       inkscape:export-filename="/home/hoffmann/Uni/projects/sf/maltcms/maven/cross/trunk/src/site/resources/images/cross-logo.png"
       inkscape:export-xdpi="33.740002"
       inkscape:export-ydpi="33.740002" />
    <path
       inkscape:export-ydpi="33.740002"
       inkscape:export-xdpi="33.740002"
       inkscape:export-filename="/home/hoffmann/Uni/projects/sf/maltcms/maven/cross/trunk/src/site/resources/images/cross-logo.png"
       inkscape:connector-curvature="0"
       id="path3840"
       d="m 122,2.3621856 14.15625,15.0000004 -14.15625,15 10,0 60,0 60,99.999994 59.99999,0 14.15625,-15 -14.15625,-15 -59.99999,0 -60,-99.9999944 -60,0 -10,0 z"
       style="fill:#afc6e9;fill-opacity:1;fill-rule:nonzero;stroke:#000000;stroke-width:2;stroke-linecap:round;stroke-linejoin:round;stroke-miterlimit:4;stroke-opacity:1;stroke-dasharray:none" />
    <path
       style="fill:#aade87;fill-opacity:1;fill-rule:nonzero;stroke:#000000;stroke-width:2;stroke-linecap:round;stroke-linejoin:round;stroke-miterlimit:4;stroke-opacity:1;stroke-dasharray:none"
       d="M 58,2.3621896 -2,102.36219 l -60,0 -10,0 14.15625,15 -14.15625,15 10,0 60,0 60,-100 59.99999,0 14.15625,-15 -14.15625,-15.0000004 -59.99999,0 z"
       id="rect2993"
       inkscape:connector-curvature="0"
       inkscape:export-filename="/home/hoffmann/Uni/projects/sf/maltcms/maven/cross/trunk/src/site/resources/images/cross-logo.png"
       inkscape:export-xdpi="33.740002"
       inkscape:export-ydpi="33.740002" />
    <path
       inkscape:export-ydpi="33.740002"
       inkscape:export-xdpi="33.740002"
       inkscape:export-filename="/home/hoffmann/Uni/projects/sf/maltcms/maven/cross/trunk/src/site/resources/images/cross-logo.png"
       inkscape:connector-curvature="0"
       id="path3842"
       d="m 252,2.3621896 -60,100.0000004 -60,0 -10,0 14.15625,15 -14.15625,15 10,0 60,0 60,-100 59.99999,0 14.15625,-15 -14.15625,-15.0000004 -59.99999,0 z"
       style="fill:#afc6e9;fill-opacity:1;fill-rule:nonzero;stroke:#000000;stroke-width:2;stroke-linecap:round;stroke-linejoin:round;stroke-miterlimit:4;stroke-opacity:1;stroke-dasharray:none" />
  </g>
</svg>
